<svg width="1160" height="1160" fill="none" xmlns="http://www.w3.org/2000/svg"><path fill-rule="evenodd" clip-rule="evenodd" d="M60 0C26.863 0 0 26.863 0 60v1040c0 33.14 26.863 60 60 60h1040c33.14 0 60-26.86 60-60V60c0-33.137-26.86-60-60-60H60Zm80 940c-33.137 0-60 26.863-60 60 0 33.14 26.863 60 60 60h80c33.137 0 60-26.86 60-60 0-33.137-26.863-60-60-60h-80ZM80 790c0-33.137 26.863-60 60-60h280c33.137 0 60 26.863 60 60s-26.863 60-60 60H140c-33.137 0-60-26.863-60-60Zm60-270c-33.137 0-60 26.863-60 60s26.863 60 60 60h480c33.137 0 60-26.863 60-60s-26.863-60-60-60H140ZM80 370c0-33.137 26.863-60 60-60h680c33.137 0 60 26.863 60 60s-26.863 60-60 60H140c-33.137 0-60-26.863-60-60Zm60-270c-33.137 0-60 26.863-60 60s26.863 60 60 60h880c33.14 0 60-26.863 60-60s-26.86-60-60-60H140Z" fill="#1DB954"/></svg>